<svg width="48" height="48" viewBox="0 0 48 48" fill="none" xmlns="http://www.w3.org/2000/svg">
  <!-- 배경 원 -->
  <circle cx="24" cy="24" r="23" fill="url(#bgGradient)" stroke="#2563eb" stroke-width="1"/>
  
  <!-- 6개 색상 섹션 (로또 번호 색상) -->
  <path d="M24 24 L24 2 A22 22 0 0 1 42.627 13 Z" fill="#10b981"/>
  <path d="M24 24 L42.627 13 A22 22 0 0 1 42.627 35 Z" fill="#f59e0b"/>
  <path d="M24 24 L42.627 35 A22 22 0 0 1 24 46 Z" fill="#3b82f6"/>
  <path d="M24 24 L24 46 A22 22 0 0 1 5.373 35 Z" fill="#ef4444"/>
  <path d="M24 24 L5.373 35 A22 22 0 0 1 5.373 13 Z" fill="#8b5cf6"/>
  <path d="M24 24 L5.373 13 A22 22 0 0 1 24 2 Z" fill="#06b6d4"/>
  
  <!-- 중앙 흰색 원 -->
  <circle cx="24" cy="24" r="10" fill="white" stroke="#2563eb" stroke-width="1.5"/>
  
  <!-- 중앙 텍스트 -->
  <text x="24" y="20" text-anchor="middle" font-family="Arial, sans-serif" font-size="7" font-weight="bold" fill="#2563eb">LOTTO</text>
  <text x="24" y="29" text-anchor="middle" font-family="Arial, sans-serif" font-size="5" font-weight="600" fill="#2563eb">6/45</text>
  
  <!-- 네잎클로버 (우상단) -->
  <g transform="translate(36, 8) scale(0.8)">
    <circle cx="2" cy="2" r="3" fill="#10b981"/>
    <circle cx="6" cy="2" r="3" fill="#10b981"/>
    <circle cx="2" cy="6" r="3" fill="#10b981"/>
    <circle cx="6" cy="6" r="3" fill="#10b981"/>
    <rect x="3.5" y="7" width="1" height="3" fill="#059669"/>
  </g>
  
  <defs>
    <linearGradient id="bgGradient" x1="0%" y1="0%" x2="100%" y2="100%">
      <stop offset="0%" style="stop-color:#f8fafc;stop-opacity:1" />
      <stop offset="100%" style="stop-color:#e2e8f0;stop-opacity:1" />
    </linearGradient>
  </defs>
</svg>
